<svg xmlns="http://www.w3.org/2000/svg" height="28.785" width="43.82" viewBox="0 0 41.081 26.986"><defs><linearGradient id="a" y2="-412.79" gradientUnits="userSpaceOnUse" x2="821.92" gradientTransform="matrix(1 0 0 1.0219 -4.813 52.955)" y1="-386.98" x1="822.46"><stop stop-color="#3d3d3d" offset="0"/><stop stop-color="#fbfbfb" offset="1"/></linearGradient><linearGradient id="b" y2="-350.07" gradientUnits="userSpaceOnUse" x2="821.71" gradientTransform="translate(-3.893 5.876)" y1="-372.35" x1="821.89"><stop stop-color="#d1d1d1" offset="0"/><stop stop-color="#e2e3e2" offset=".36"/><stop stop-color="#ededed" offset=".678"/><stop stop-color="#fcfcfc" offset="1"/></linearGradient><linearGradient id="c" y2="-333.89" gradientUnits="userSpaceOnUse" x2="913.16" gradientTransform="translate(105.52 -77.537) scale(.78723)" y1="-348.85" x1="912.9"><stop stop-color="#939393" offset="0"/><stop stop-color="#fff" offset="1"/></linearGradient><radialGradient id="d" gradientUnits="userSpaceOnUse" cy="-342.2" cx="916.19" gradientTransform="matrix(1.9993 -.0362 .02893 1.5978 -997.39 230.16)" r="7.559"><stop stop-color="#fff" stop-opacity="0" offset="0"/><stop stop-color="#fff" stop-opacity=".186" offset=".207"/><stop stop-color="#fff" stop-opacity=".325" offset=".318"/><stop stop-color="#fff" offset="1"/></radialGradient></defs><g transform="translate(-803.67 359.7)"><g color="#000" white-space="normal"><path style="text-decoration-color:#000;isolation:auto;mix-blend-mode:normal;block-progression:tb;text-decoration-line:none;text-decoration-style:solid;text-indent:0;text-transform:none" d="M811.274-359.707a7.607 7.809 0 0 0-7.606 7.81v11.368a7.607 7.809 0 0 0 7.606 7.808h25.87a7.607 7.809 0 0 0 7.606-7.808v-11.369a7.607 7.809 0 0 0-7.606-7.81h-25.87z" fill="#1b1b1b"/><path style="text-decoration-color:#000;isolation:auto;mix-blend-mode:normal;block-progression:tb;text-decoration-line:none;text-decoration-style:solid;text-indent:0;text-transform:none" d="M804.57-368.63a7.429 7.592 0 0 0-7.428 7.593v11.053a7.429 7.592 0 0 0 7.428 7.59h25.266a7.429 7.592 0 0 0 7.428-7.59v-11.053a7.429 7.592 0 0 0-7.428-7.593H804.57z" fill="url(#a)" transform="translate(7.008 9.3)"/><path style="text-decoration-color:#000;isolation:auto;mix-blend-mode:normal;block-progression:tb;text-decoration-line:none;text-decoration-style:solid;text-indent:0;text-transform:none" d="M805.23-367.67a7.036 7.036 0 0 0-7.035 7.037v10.244a7.036 7.036 0 0 0 7.035 7.035h23.93a7.036 7.036 0 0 0 7.035-7.035v-10.244a7.036 7.036 0 0 0-7.035-7.037h-23.93z" fill="url(#b)" transform="translate(7.008 9.3)"/></g><circle cx="824.21" cy="-346.21" r="6.012" fill="url(#c)"/><circle cx="824.21" cy="-346.21" r="5.394" fill="url(#d)"/></g><path style="text-decoration-color:#000;isolation:auto;mix-blend-mode:normal;block-progression:tb;text-decoration-line:none;text-decoration-style:solid;text-indent:0;text-transform:none" d="M7.6-.01A7.607 7.809 0 0 0-.005 7.8v11.369A7.607 7.809 0 0 0 7.6 26.976h25.87a7.607 7.809 0 0 0 7.606-7.807V7.799A7.607 7.809 0 0 0 33.47-.01H7.6z" fill-opacity=".784" fill="#ff6e40" color="#000" white-space="normal"/></svg>