<svg xmlns="http://www.w3.org/2000/svg" height="32" width="89.257" xmlns:xlink="http://www.w3.org/1999/xlink" viewBox="0 0 83.68 30"><defs><linearGradient id="c" y2="-327.83" gradientUnits="userSpaceOnUse" x2="895.4" gradientTransform="translate(-31.905 97.852)" y1="-357.17" x1="895.4"><stop stop-color="#bdbdc1" offset="0"/><stop stop-color="#f4f4f4" offset="1"/></linearGradient><linearGradient id="d" y2="-392.51" gradientUnits="userSpaceOnUse" x2="892.44" gradientTransform="matrix(1 0 0 .78494 -34.597 55.388)" y1="-366.35" x1="892.44"><stop stop-color="#838383" offset="0"/><stop stop-color="#979797" offset=".538"/><stop stop-color="#a7a7a7" offset="1"/></linearGradient><linearGradient id="e" y2="-334.29" xlink:href="#a" gradientUnits="userSpaceOnUse" x2="913.4" gradientTransform="translate(192.99 -72.172) scale(.78723)" y1="-349.49" x1="913.38"/><linearGradient id="a"><stop stop-color="#3d3d3d" stop-opacity=".863" offset="0"/><stop stop-color="#fff" stop-opacity="0" offset="1"/></linearGradient><radialGradient id="f" xlink:href="#b" gradientUnits="userSpaceOnUse" cy="-341.87" cx="916.16" gradientTransform="matrix(4.5735 -.17574 .13786 3.5876 -3230.9 1043.7)" r="7.559"/><linearGradient id="b"><stop stop-color="#fff" stop-opacity="0" offset="0"/><stop stop-color="#fff" stop-opacity=".104" offset=".175"/><stop stop-color="#fff" stop-opacity=".922" offset=".393"/><stop stop-color="#fff" offset="1"/></linearGradient></defs><g color="#000" white-space="normal"><path style="text-decoration-color:#000;isolation:auto;mix-blend-mode:normal;block-progression:tb;text-decoration-line:none;text-decoration-style:solid;text-indent:0;text-transform:none" d="M826.67-260.18c-4.201 0-7.606 3.888-7.606 8.682v12.639c.001 4.793 3.406 8.679 7.606 8.68h68.469c4.2-.001 7.605-3.887 7.605-8.68v-12.64c.001-4.793-3.404-8.68-7.605-8.681z" fill="url(#c)" transform="translate(-819.06 260.17)"/><path style="text-decoration-color:#000;isolation:auto;mix-blend-mode:normal;block-progression:tb;text-decoration-line:none;text-decoration-style:solid;text-indent:0;text-transform:none" d="M7.61 2.77C3.409 2.77.004 6.033.004 10.057v10.608C.005 24.688 3.41 27.95 7.61 27.95h68.469c4.2 0 7.605-3.262 7.605-7.285V10.057c.001-4.024-3.404-7.286-7.605-7.287z" fill="#585859"/><path style="text-decoration-color:#000;isolation:auto;mix-blend-mode:normal;block-progression:tb;text-decoration-line:none;text-decoration-style:solid;text-indent:0;text-transform:none" d="M826.67-253.64c-4.201 0-7.606 2.76-7.606 6.162v8.97c.001 3.401 3.406 6.159 7.606 6.16h68.469c4.2-.001 7.605-2.759 7.605-6.16v-8.97c.001-3.403-3.404-6.161-7.605-6.162z" fill="url(#d)" transform="translate(-819.06 260.17)"/></g><g transform="translate(-848.877 355.839)"><circle cx="911.68" cy="-340.85" r="6.012" fill="url(#e)"/><circle cx="911.68" cy="-340.85" r="5.394" fill="url(#f)"/></g><g transform="translate(-890.712 355.839)"><circle cx="911.68" cy="-340.85" r="6.012" fill="url(#e)"/><circle cx="911.68" cy="-340.85" r="5.394" fill="url(#f)"/></g><path style="text-decoration-color:#000;isolation:auto;mix-blend-mode:normal;block-progression:tb;text-decoration-line:none;text-decoration-style:solid;text-indent:0;text-transform:none" d="M7.61 2.77C3.409 2.77.004 6.033.004 10.057v10.608C.005 24.688 3.41 27.95 7.61 27.95h68.469c4.2 0 7.605-3.262 7.605-7.285V10.057c.001-4.024-3.404-7.286-7.605-7.287z" fill-opacity=".391" fill="#ff6e4a" color="#000" white-space="normal"/></svg>