<svg xmlns="http://www.w3.org/2000/svg" height="106.666" width="106.666" xmlns:xlink="http://www.w3.org/1999/xlink" viewBox="0 0 100 100"><defs><linearGradient id="a"><stop stop-color="#878990" offset="0"/><stop stop-color="#f6f6f6" offset="1"/></linearGradient><radialGradient id="e" gradientUnits="userSpaceOnUse" cy="991.7" cx="1007" gradientTransform="matrix(-.005 -.5805 1.8349 -.01582 -2300 975.09)" r="86.621"><stop stop-color="#bcbdc1" offset="0"/><stop stop-color="#dfdfdf" offset="1"/></radialGradient><radialGradient id="d" xlink:href="#a" gradientUnits="userSpaceOnUse" cy="991.7" cx="1007" gradientTransform="matrix(-.00534 -.61891 1.9563 -.01687 -2420 1016.8)" r="86.621"/><radialGradient id="c" gradientUnits="userSpaceOnUse" cy="991.7" cx="1007" gradientTransform="matrix(.00582 .80069 -2.1343 .01552 1622.1 -511.53)" r="86.621"><stop stop-color="#8c8d93" offset="0"/><stop stop-color="#fff" offset="1"/></radialGradient><radialGradient id="f" xlink:href="#a" gradientUnits="userSpaceOnUse" cy="991.7" cx="1007" gradientTransform="matrix(.00313 .3626 -1.1462 .00988 645.7 -48.682)" r="86.621"/><linearGradient id="b" y2="392.18" gradientUnits="userSpaceOnUse" x2="-369.32" gradientTransform="translate(109.7 -2.724)" y1="293.68" x1="-370.65"><stop stop-color="#a0a0a0" offset="0"/><stop stop-color="#f9faff" offset="1"/></linearGradient></defs><path d="M-260.16 290.67c-19.168-.221-37.725 11.849-45.288 29.465-7.973 17.434-4.455 39.289 8.583 53.342 12.841 14.512 34.573 20.101 52.82 13.575 18.4-6.082 32.096-23.857 33.29-43.199 1.657-19.306-9.283-38.901-26.592-47.615a49.622 49.622 0 0 0-22.813-5.568zm-.514 1.664c18.978-.215 37.342 12.022 44.334 29.683 7.038 17.181 2.95 38.084-9.555 51.571-.231.2-.585.916-1.367.573-.781-.343-1.868-1.534-2.567-2.25-1.332-1.366-2.752-2.533-1.863-3.51 12.362-14.017 15.466-38.947 4.387-53.994-10.077-14.664-29.972-21.296-46.858-15.752-18.125 5.321-32.394 23.295-31.11 42.522.687 11.361 4.91 22.828 13.014 30.964-.527 1.386-.76 1.495-2.09.044-1.418-1.546-2.829-3.041-5.222-6.383-8.845-13.5-10.547-31.498-3.58-46.167 6.8-15.182 22.122-26.317 38.859-27.17a51.935 51.935 0 0 1 3.618-.131zm.432 28.711c2.66-.033 5.8.632 8.362 1.893 2.815 1.323 5.399 3.51 7.165 5.947 2.978 3.951 4.235 9.363 3.544 13.916-.636 5.085-3.598 9.93-7.645 12.856-3.9 2.96-9.319 4.227-13.796 3.572a19.193 19.193 0 0 1-16.506-16.147c-.415-2.855-.259-5.549.642-8.524 1.145-3.851 3.785-7.488 6.978-9.79 3.174-2.373 7.357-3.73 11.256-3.724zm-1.715.086c-.053.002-.008.009 0 0zm-1.398.184c-.033.002-.002.009 0 0zm-13.438 9.377c-.025.037.004.009 0 0zm-.447.828c-.026.047.005.009 0 0zm-.77 1.717c-.02.047.005.009 0 0zm-.719 2.236c-.016.055.006.012 0 0zm-.51 6.533c.001.054.01.008 0 0zm.184 1.398c.003.032.008.005 0 0zm9.377 13.438c.037.025.01-.004 0 0zm.828.448c.048.026.01-.005 0 0zm1.717.77c.048.02.009-.006 0 0zm2.236.718c.056.016.012-.006 0 0zm6.533.51c.054-.002.008-.01 0 0zm1.399-.184c.033-.002.002-.009 0 0zm13.438-9.377c.025-.037-.004-.009 0 0zm.447-.828c.026-.048-.005-.009 0 0zm.77-1.717c.02-.048-.005-.009 0 0zm.718-2.236c.017-.056-.006-.012 0 0zm.51-6.533c-.002-.054-.009-.008 0 0zm-.183-1.399c-.003-.03-.008-.005 0 0zm-9.377-13.438c-.038-.024-.01.004 0 0zm-.829-.447c-.047-.026-.009.005 0 0zm-1.716-.77c-.048-.02-.01.005 0 0zm-2.237-.718c-.055-.017-.012.006 0 0zm-20.057 7.77c-.014.003.008.021 0 0zm-2.617 16.231l.006.008zm33.26 5.356l.002.002zm-6.086 5.515h.002zm-3.795 1.627v.002z" fill="url(#b)" transform="translate(310.14 -290.207)"/><path d="M49.992.017a50.156 50.156 0 0 0-19.134 3.808 50.15 50.15 0 0 0-16.22 10.839 50.167 50.167 0 0 0-10.84 16.22A50.162 50.162 0 0 0-.009 50.02a50.156 50.156 0 0 0 3.807 19.134 50.15 50.15 0 0 0 10.84 16.221 50.167 50.167 0 0 0 16.22 10.839 50.162 50.162 0 0 0 19.134 3.807 50.156 50.156 0 0 0 19.135-3.807 50.15 50.15 0 0 0 16.22-10.839 50.167 50.167 0 0 0 10.84-16.221 50.162 50.162 0 0 0 3.807-19.134 50.156 50.156 0 0 0-3.807-19.134 50.15 50.15 0 0 0-10.84-16.221 50.167 50.167 0 0 0-16.22-10.84A50.162 50.162 0 0 0 49.992.018zm-.523 1.158a.734.734 0 0 1 .002 0c12.901.01 25.412 5.14 34.531 14.27 9.12 9.108 14.116 20.904 14.127 33.8-.01 13.272-5.2 25.334-12.83 34.287-.432.506-1.027.816-1.628.803-.601-.014-1.129-.311-1.56-.718-.499-.471-1.29-1.19-1.98-1.833a40.512 40.512 0 0 1-.915-.874 8.882 8.882 0 0 1-.325-.337c-.091-.101-.155-.152-.256-.347-.243-.472-.196-.935-.113-1.276.042-.17.097-.317.155-.442.058-.125.06-.188.244-.373l-.038.04c1.854-2.159 3.29-3.796 4.81-6.044a42.184 42.184 0 0 0 5.325-11.073 41.906 41.906 0 0 0 1.039-4.05 42.26 42.26 0 0 0 .862-8.529 42.222 42.222 0 0 0-.862-8.526 41.966 41.966 0 0 0-1.039-4.052 42.181 42.181 0 0 0-5.325-11.073 42.512 42.512 0 0 0-5.167-6.26 42.494 42.494 0 0 0-6.258-5.167 42.188 42.188 0 0 0-11.073-5.323 42 42 0 0 0-4.055-1.04 42.172 42.172 0 0 0-4.197-.643 42.847 42.847 0 0 0-8.675.002 43.435 43.435 0 0 0-4.26.652 44.966 44.966 0 0 0-8.155 2.5 46.105 46.105 0 0 0-14.107 9.178 44.895 44.895 0 0 0-5.51 6.32 43.357 43.357 0 0 0-2.28 3.513 42.114 42.114 0 0 0-1.92 3.72 40.95 40.95 0 0 0-1.541 3.902 39.355 39.355 0 0 0-2.071 12.59c0 1.46.076 2.957.225 4.472.15 1.514.374 3.046.666 4.58a54.079 54.079 0 0 0 2.573 9.08A49.9 49.9 0 0 0 9.757 71.2a44.095 44.095 0 0 0 2.23 4 37.088 37.088 0 0 0 2.566 3.596 30.183 30.183 0 0 0 2.885 3.098.835.835 0 0 1 .234.775c-.025.13-.057.205-.08.263a.734.734 0 0 1-.02.052s-.125.496-.756.751c.028-.011-.131.077-.365.075a.988.988 0 0 1-.624-.265C7.474 75.522 1.706 62.17 1.694 49.244a.734.734 0 0 1 0-.002 48.656 48.656 0 0 1 13.522-33.579l.002-.002c9.157-9.6 20.996-14.465 34.25-14.487zm.523 30.118c-.99 0 1.91.072.92.024-.99-.049 1.902.164.916.067-.987-.097 1.892.257.911.111-.98-.145 1.878.352.906.159-.972-.194 1.86.44.898.2-.962-.24 1.834.533.886.246-.949-.288 1.805.621.872.287-.934-.334 1.773.71.858.331-.916-.38 1.736.796.84.373-.896-.424 1.695.881.82.414-.874-.467 1.651.961.801.452-.85-.51 1.601 1.044.777.493-.824-.55 1.547 1.12.751.53-.796-.591 1.49 1.193.724.564-.767-.629 1.43 1.266.695.6-.734-.665 1.367 1.336.666.635-.7-.701 1.3 1.4.634.666-.665-.735 1.23 1.462.6.695-.628-.766 1.156 1.52.566.724s1.08 1.575.529.75c-.551-.823 1.003 1.628.493.778-.51-.85.92 1.675.452.8-.467-.874.838 1.717.414.82-.424-.895.752 1.757.373.841-.38-.916.665 1.792.33.858-.333-.933.576 1.82.288.872-.288-.948.487 1.848.246.886-.24-.961.393 1.87.2.898-.193-.972.304 1.886.159.906-.146-.98.208 1.898.11.911-.097-.986.117 1.906.068.916-.049-.99.024 1.91.024.92 0-.992-.073 1.909-.024.919.049-.99-.165 1.902-.067.916.097-.987-.257 1.892-.111.911.145-.98-.352 1.878-.159.906.193-.972-.44 1.86-.2.898.24-.962-.534 1.834-.246.886.288-.949-.621 1.805-.287.872.334-.934-.71 1.774-.331.858.38-.916-.797 1.736-.373.84s-.881 1.695-.414.82c.467-.874-.961 1.651-.452.801.51-.85-1.044 1.601-.493.777.55-.824-1.12 1.547-.53.751.591-.796-1.193 1.49-.564.724.629-.767-1.266 1.43-.6.695.665-.734-1.336 1.367-.635.666.7-.7-1.4 1.3-.666.634.735-.665-1.462 1.23-.695.6.766-.628-1.52 1.156-.724.566s-1.575 1.08-.751.529c.824-.55-1.627 1.003-.777.493.85-.51-1.675.92-.8.452.874-.467-1.717.838-.821.414.896-.423-1.756.752-.84.373.915-.38-1.792.665-.858.33.933-.333-1.821.576-.872.288.948-.287-1.848.487-.886.246.961-.24-1.87.393-.898.2.972-.193-1.886.304-.906.159.98-.146-1.898.208-.911.11.986-.096-1.906.117-.916.068.99-.049-1.91.024-.92.024.992 0-1.91-.073-.92-.024.99.049-1.901-.164-.915-.067.987.097-1.892-.257-.911-.111.98.145-1.878-.352-.906-.159.972.193-1.86-.44-.898-.2.962.24-1.834-.533-.886-.246.949.288-1.805-.621-.872-.287.933.334-1.774-.71-.858-.331.916.38-1.736-.796-.84-.373s-1.695-.881-.82-.414c.873.467-1.652-.961-.801-.452.85.51-1.601-1.044-.777-.493.824.55-1.547-1.12-.751-.53.796.591-1.49-1.193-.724-.564.766.629-1.43-1.266-.695-.6.734.665-1.367-1.336-.666-.635.7.701-1.3-1.4-.634-.666.665.735-1.23-1.462-.601-.695.629.766-1.155-1.52-.565-.724.59.796-1.08-1.575-.529-.75.55.823-1.003-1.628-.493-.778.51.85-.92-1.675-.452-.8.467.874-.838-1.717-.414-.82.423.895-.752-1.757-.373-.841.38.916-.665-1.792-.331-.858.334.933-.575-1.82-.287-.872.287.948-.487-1.848-.246-.886.24.961-.394-1.87-.2-.898.193.972-.304-1.886-.159-.906.146.98-.208-1.898-.11-.911.096.986-.117-1.906-.068-.916.048.99-.024-1.91-.024-.92 0 .992.072-1.91.024-.92-.049.99.164-1.901.067-.915-.097.987.257-1.892.111-.911-.145.98.352-1.878.159-.906-.194.972.44-1.86.2-.898-.241.962.533-1.834.246-.886-.288.949.62-1.805.287-.872-.334.934.71-1.774.331-.858-.38.916.796-1.736.373-.84-.424.896.881-1.695.414-.82-.468.874.961-1.651.452-.801-.51.85 1.044-1.601.493-.777-.55.824 1.12-1.547.53-.751-.591.796 1.193-1.49.564-.724-.629.767 1.266-1.43.6-.695-.665.734 1.336-1.367.635-.666-.701.7 1.4-1.3.666-.634-.735.665 1.462-1.23.695-.6-.766.628 1.52-1.156.724-.566-.797.59 1.575-1.08.75-.529-.823.55 1.628-1.003.778-.493-.85.51 1.674-.92.8-.452-.874.467 1.717-.838.82-.414-.895.423 1.757-.752.841-.373-.916.38 1.791-.665.858-.33-.933.333 1.82-.576.872-.288-.948.287 1.848-.487.886-.246-.961.24 1.87-.394.898-.2-.972.193 1.886-.304.906-.159-.98.146 1.898-.208.911-.11-.986.096 1.906-.117.916-.068-.99.048 1.91-.024.92-.024z" fill="#e6e7e8"/><g><path fill="url(#c)" d="M-486.86 309.22a35.709 35.709 0 0 0-35.711 35.709 35.709 35.709 0 0 0 35.711 35.711 35.709 35.709 0 0 0 35.709-35.711 35.709 35.709 0 0 0-35.709-35.709zm0 16.533a19.177 19.177 0 0 1 19.176 19.176 19.177 19.177 0 0 1-19.176 19.178 19.177 19.177 0 0 1-19.178-19.178 19.177 19.177 0 0 1 19.178-19.176z" transform="translate(536.86 -294.93)"/><path d="M-486.86 312.2a32.733 32.733 0 0 0-32.732 32.734 32.733 32.733 0 0 0 32.732 32.732 32.733 32.733 0 0 0 32.732-32.732A32.733 32.733 0 0 0-486.86 312.2zm0 13.557a19.177 19.177 0 0 1 19.178 19.178 19.177 19.177 0 0 1-19.178 19.176 19.177 19.177 0 0 1-19.178-19.176 19.177 19.177 0 0 1 19.178-19.178z" stroke="#8c8d93" stroke-width=".496" fill="url(#d)" transform="translate(536.86 -294.93)"/><path fill="url(#e)" d="M-486.86 314.23a30.702 30.702 0 0 0-30.701 30.701 30.702 30.702 0 0 0 30.701 30.701 30.702 30.702 0 0 0 30.701-30.701 30.702 30.702 0 0 0-30.701-30.701zm0 11.523a19.177 19.177 0 0 1 19.178 19.178 19.177 19.177 0 0 1-19.178 19.178 19.177 19.177 0 0 1-19.178-19.178 19.177 19.177 0 0 1 19.178-19.178z" transform="translate(536.86 -294.93)"/><path fill="url(#f)" d="M-486.86 325.76a19.177 19.177 0 0 0-19.178 19.178 19.177 19.177 0 0 0 19.178 19.178 19.177 19.177 0 0 0 19.178-19.178 19.177 19.177 0 0 0-19.178-19.178zm0 1.41a17.768 17.768 0 0 1 17.768 17.768 17.768 17.768 0 0 1-17.768 17.768 17.768 17.768 0 0 1-17.768-17.768 17.768 17.768 0 0 1 17.768-17.768z" transform="translate(536.86 -294.93)"/></g></svg>